<svg width="79" height="34" viewBox="0 0 79 34" fill="none" xmlns="http://www.w3.org/2000/svg">
<path d="M9.37944 28.2C9.37944 26.8475 9.08311 25.3448 9.97215 21.7381C10.3838 20.0682 11.8984 16.779 14.4173 15.4265H32.4946C33.0383 14.7373 33.7597 13.2892 33.6164 11.6696M55.6097 5.20774L62.0992 11.6696M55.6097 5.20774H51.3126M55.6097 5.20774L53.7575 3.10387M63.7593 13.3227H66.8709M63.7593 13.3227L59.9067 9.41548H66.8709M63.7593 13.3227L62.0992 11.6696M78.1321 13.3227V15.126M78.1321 13.3227V9.41548H74.576V13.3227M78.1321 13.3227H74.576M78.1321 15.126L60.7958 28.0498M78.1321 15.126L11.7201 17.9812M74.576 13.3227H70.8716M70.8716 13.3227V9.41548H66.8709M70.8716 13.3227H66.8709M66.8709 9.41548V13.3227M33.6164 11.6696C33.5514 10.9352 33.3087 10.1656 32.7909 9.41548C31.1314 7.01106 29.3335 5.60848 28.642 5.20774H20.4925H29.0125M33.6164 11.6696H46.1266M33.6164 11.6696L37.5325 5.20774M62.0992 11.6696H51.3126M51.3126 5.20774V11.6696M51.3126 5.20774H40.496M51.3126 11.6696H46.1266M46.1266 11.6696L37.5325 5.20774M37.5325 5.20774H40.496M37.5325 5.20774H29.0125M40.496 5.20774L42.2 3.10387M53.7575 3.10387L51.9053 1H43.904L42.2 3.10387M53.7575 3.10387H42.2M29.0125 5.20774L25.0859 2.20221" stroke="#2C4E59" stroke-width="1.08519"/>
<circle cx="20.1336" cy="20.6004" r="0.657409" stroke="#2C4E59" stroke-width="1.08519"/>
<circle cx="24.9344" cy="20.6004" r="0.657409" stroke="#2C4E59" stroke-width="1.08519"/>
<circle cx="29.7332" cy="20.6004" r="0.657409" stroke="#2C4E59" stroke-width="1.08519"/>
<circle cx="62.534" cy="20.6004" r="0.657409" stroke="#2C4E59" stroke-width="1.08519"/>
<path d="M0.533203 28.2002C1.82654 29.8002 5.62032 33.0002 10.4488 33.0002C14.4861 33.0002 17.5991 31.1358 19.1829 29.7453C19.5807 29.3961 20.2346 29.4378 20.6107 29.8103C22.007 31.1931 25.0222 33.0002 29.8488 33.0002C34.4985 33.0002 37.1057 31.4908 38.2724 30.2675C38.6414 29.8806 39.306 29.7622 39.7419 30.0718C41.5034 31.3231 44.9242 33.0002 49.2488 33.0002C53.671 33.0002 56.5182 31.2465 57.7903 29.9878C58.0984 29.6829 58.5861 29.5985 58.9562 29.8241C61.0292 31.0883 65.2015 33.0002 69.5111 33.0002C74.3395 33.0002 77.2711 30.3335 78.1333 29.0002" stroke="#2C4E59" stroke-width="1.08519"/>
</svg>
