<svg width="78" height="28" viewBox="0 0 78 28" fill="none" xmlns="http://www.w3.org/2000/svg">
<path d="M2.94488 26.6L1 20.237M1 20.237L5.33859 14.9098L9.82678 14.6213M1 20.237L67.8741 14.3179M76.7009 10.3226C74.008 13.9727 65.0316 22.3383 50.6694 26.6M76.7009 10.3226L9.82678 14.6213M76.7009 10.3226L77.0001 9.43469L49.9213 9.13874M9.82678 14.6213C10.2756 13.2377 11.3528 10.3522 12.0709 9.87863C12.382 9.67345 16.1312 8.49775 21.0473 7.00639M49.9213 9.13874L41.2441 1C38.6768 1.7524 35.3969 2.71852 31.9685 3.73569M49.9213 9.13874L37.13 10.2486M21.0473 7.00639L24.3386 11.3584L37.13 10.2486M21.0473 7.00639C24.3865 5.99338 28.2642 4.83474 31.9685 3.73569M31.9685 3.73569L37.13 10.2486" stroke="#2C4E59" stroke-width="1.08519"/>
</svg>
