<svg width="100" height="41" viewBox="0 0 100 41" fill="none" xmlns="http://www.w3.org/2000/svg">
<path d="M11.9381 36L11 31.5319H14.0019L17.1914 23.7128H19.8181M75.3535 13.6596L81.5952 19.4309M75.3535 13.6596H71.2258M75.3535 13.6596L70.2877 7.51596H63.3458M19.8181 23.7128L22.0695 13.6596H23.9457M19.8181 23.7128H96.1792M23.9457 13.6596V19.4309H33.4205M23.9457 13.6596H28.6831M81.5952 19.4309L83.2335 20.734C86.7982 20.5479 94.7908 20.734 96.7421 20.734C98.6933 20.734 99.056 22.7199 98.9935 23.7128H96.1792M81.5952 19.4309H71.2258M71.2258 13.6596V19.4309M71.2258 13.6596H67.6611M71.2258 19.4309H64.2839M64.2839 19.4309L58.4677 13.6596M64.2839 19.4309H52.8391M58.4677 13.6596H52.8391M58.4677 13.6596H67.6611M58.4677 13.6596V7.51596M52.8391 13.6596V19.4309M52.8391 13.6596H47.8672M52.8391 19.4309H42.8953M42.8953 19.4309V13.6596M42.8953 19.4309H33.4205M42.8953 13.6596H47.8672M42.8953 13.6596H38.1579M33.4205 13.6596V19.4309M33.4205 13.6596H28.6831M33.4205 13.6596H38.1579M28.6831 13.6596L20.9438 7.51596H31.0753M67.6611 13.6596L63.3458 7.51596M63.3458 7.51596H61.6572M58.4677 7.51596H47.8672M58.4677 7.51596H61.6572M47.8672 13.6596V7.51596M47.8672 7.51596H38.1579M47.8672 7.51596L45.3813 4.7234M38.1579 13.6596V7.51596M38.1579 7.51596H31.0753M31.0753 7.51596L32.5762 4.7234M45.3813 4.7234L42.8953 1.93085H34.0772L32.5762 4.7234M45.3813 4.7234H32.5762M56.0287 1L61.6572 7.51596M96.1792 23.7128C95.8665 24.5195 93.0987 27.7706 87.5487 31.1596C82.6706 34.1383 79.1684 35.5035 78.3554 36" stroke="#2C4E59"/>
<path d="M1 34C2.63333 36 7.42444 40 13.5222 40C18.6338 40 22.5721 37.6577 24.5675 35.9183C25.0633 35.4862 25.8733 35.5377 26.3419 35.9992C28.0992 37.7293 31.911 40 38.0222 40C43.9107 40 47.2052 38.1027 48.6725 36.5714C49.1323 36.0915 49.9558 35.9445 50.4989 36.3275C52.7185 37.8928 57.0467 40 62.5222 40C68.1185 40 71.7174 37.7989 73.319 36.2247C73.7028 35.8475 74.307 35.743 74.7675 36.0214C77.3806 37.6015 82.6588 40 88.1111 40C94.2089 40 97.9111 36.6667 99 35" stroke="#2C4E59"/>
</svg>
