<svg width="85" height="86" viewBox="0 0 85 86" fill="none" xmlns="http://www.w3.org/2000/svg">
<path d="M24.108 34.5464C26.8632 41.3913 32.8451 45.067 35.6529 45.5736C35.7629 45.5935 35.8758 45.5887 35.9851 45.5658C47.5399 43.1409 48.9987 29.5104 50.453 30.4739C52.2093 31.6375 53.3802 24.6561 53.3802 21.7472C53.3802 19.9625 52.0028 20.2309 51.0967 20.453C50.7764 20.5315 50.5402 20.2729 50.6024 19.949C51.5168 15.1879 50.1062 1.9668 35.817 1.9668C18.8391 1.9668 21.1809 19.4201 21.7663 20.5837C21.7893 20.6294 19.7758 20.002 18.8391 22.3291C17.9887 24.4417 20.6122 30.3899 21.5411 30.1628C21.7703 30.1068 21.6539 29.7771 21.6648 29.5414C21.6764 29.2895 22.4595 30.4508 24.108 34.5464Z" stroke="#2C4E59" stroke-width="0.991667"/>
<path d="M23.3217 46.4526L28.1809 42.625L9.55657 47.0922C7.70109 47.5372 6.26562 49.0075 5.86516 50.8731L0.88169 74.0889C0.84382 74.2653 0.898968 74.4446 1.03839 74.5592C5.28789 78.0502 19.3576 84.1884 37.3012 84.1884C56.0039 84.1884 68.3811 78.6258 72.9631 75.1452C73.1184 75.0272 73.1813 74.8305 73.1336 74.6414L67.1102 50.7492C66.6567 48.9504 65.2371 47.5552 63.4307 47.1331L44.1413 42.625L49.5448 46.4556C49.7214 46.5808 49.7963 46.806 49.73 47.012L41.8406 71.5143C41.6864 71.9931 40.9995 71.9645 40.8856 71.4745L36.7762 53.7869C36.7473 53.6625 36.7675 53.5318 36.8326 53.422L40.1512 47.8204L36.3585 46.1743C36.2326 46.1196 36.0897 46.1196 35.9637 46.1743L32.171 47.8204L36.0364 53.4127C36.1158 53.5276 36.1431 53.6707 36.1115 53.8068L32.0066 71.4745C31.8928 71.9645 31.2059 71.9931 31.0517 71.5143L23.1565 46.994C23.093 46.7968 23.1588 46.5808 23.3217 46.4526Z" stroke="#2C4E59" stroke-width="0.991667"/>
<path d="M48.4219 2.95898H79.1635C81.9019 2.95898 84.1219 5.17891 84.1219 7.91732V25.5194C84.1219 28.2578 81.902 30.4777 79.1635 30.4777H69.9975C69.8202 30.4777 69.6462 30.5252 69.4935 30.6153L56.5722 38.2392C56.0954 38.5205 55.5861 37.9275 55.9361 37.4986L60.3445 32.0964C60.8731 31.4487 60.4122 30.4777 59.5762 30.4777H55.3316" stroke="#2C4E59" stroke-width="0.991667"/>
<circle cx="58.8332" cy="16.3449" r="0.991667" stroke="#2C4E59" stroke-width="0.991667"/>
<circle cx="66.7668" cy="16.3449" r="0.991667" stroke="#2C4E59" stroke-width="0.991667"/>
<circle cx="74.7004" cy="16.3449" r="0.991667" stroke="#2C4E59" stroke-width="0.991667"/>
</svg>
