<svg width="135" height="53" viewBox="0 0 135 53" fill="none" xmlns="http://www.w3.org/2000/svg">
<path d="M37.7078 45.3212C30.6345 42.5172 21.4243 36.2856 15.2637 30.1214C13.7668 28.6236 9.35186 24.4904 8.08945 22.9602M109.384 24.5655L111.141 16.9567C111.155 16.8994 111.172 16.8446 111.197 16.7916C111.87 15.3851 114.976 12.7216 122.416 12.7216C129.401 12.7216 132.9 14.3979 134.026 15.4344C134.192 15.5869 134.264 15.8078 134.264 16.0329V26.4223C134.264 27.0167 133.744 27.4775 133.154 27.407L125.971 26.5482M109.384 24.5655L115.308 25.2736M109.384 24.5655L83.9125 21.5206M115.308 25.2736L112.707 35.245M115.308 25.2736L125.971 26.5482M111.161 41.1722L112.707 35.245M32.3765 15.36L2.21616 11.7546C1.43223 11.6609 0.870325 12.4687 1.26149 13.1545C2.62714 15.5488 4.97936 19.1903 8.08945 22.9602M32.3765 15.36L47.3212 1.29708C47.6002 1.03454 48.0021 0.954319 48.3577 1.09692C55.5958 3.99987 71.9229 11.7595 83.9125 21.5206M32.3765 15.36L83.9125 21.5206M8.08945 22.9602L112.707 35.245M22.8986 45.3212C24.6757 47.6921 29.8886 52.4339 36.5231 52.4339C42.1233 52.4339 46.4291 49.6184 48.5856 47.5523C49.0848 47.0741 49.9529 47.1269 50.4204 47.6362C52.3091 49.6937 56.4709 52.4339 63.1796 52.4339C69.6678 52.4339 73.2616 50.1272 74.8273 48.3004C75.2803 47.7718 76.1592 47.6195 76.7096 48.0457C79.1107 49.9047 83.8415 52.4339 89.8361 52.4339C95.9711 52.4339 99.8999 49.7848 101.623 47.9162C102.009 47.4975 102.658 47.386 103.133 47.7C105.967 49.5729 111.727 52.4339 117.677 52.4339C124.312 52.4339 128.34 48.4824 129.525 46.5067M125.971 26.5482L121.232 43.543" stroke="#2C4E59" stroke-width="0.991667"/>
</svg>
