<svg width="86" height="91" viewBox="0 0 86 91" fill="none" xmlns="http://www.w3.org/2000/svg">
<path d="M34.5729 27.0751C31.1748 28.7805 27.8474 29.9174 26.6085 30.2727C26.6085 33.2925 28.4138 41.6771 35.6349 51.0566C42.8559 60.4361 51.3867 66.3338 54.7495 68.1102C55.6344 66.5115 58.1476 62.248 61.121 57.9846C64.8377 52.6554 67.4925 55.32 74.395 61.7151C81.2975 68.1102 81.2975 71.8407 81.2975 75.0383C81.2975 78.2358 70.1473 86.2297 64.3068 86.2297C58.4662 86.2297 35.1039 70.7749 25.0156 56.3859C14.9274 41.9969 10.6797 21.7457 10.6797 16.4164C10.6797 11.0872 17.5822 6.29102 22.3608 3.09347C27.1395 -0.104085 29.7943 2.02762 32.4491 4.69225C35.1039 7.35687 39.3516 16.9495 40.4135 20.1471C41.4754 23.3446 38.8206 24.9434 34.5729 27.0751Z" stroke="#2C4E59" stroke-width="1.1034"/>
<path d="M40.1035 8.82726C46.9786 7.80421 64.9076 8.92088 76.7538 24.4713C88.6001 40.0216 84.7032 55.8875 81.8827 61.5142" stroke="#2C4E59" stroke-width="1.1034"/>
<path d="M6.62442 28.5566C2.54316 36.1292 -4.02234 54.1953 8.75376 72.3695C21.5299 90.5437 43.3557 91.3009 51.8731 88.5964" stroke="#2C4E59" stroke-width="1.1034"/>
</svg>
