<svg width="72" height="79" viewBox="0 0 72 79" fill="none" xmlns="http://www.w3.org/2000/svg">
<path d="M15.5879 16.1607V1.95065C15.5879 1.40297 16.0319 0.958984 16.5796 0.958984H69.6781C70.2257 0.958984 70.6697 1.40297 70.6697 1.95065V65.3661C70.6697 65.6368 70.5591 65.8957 70.3634 66.0828L57.5765 78.309M57.5765 78.309H16.5796C16.0319 78.309 15.5879 77.865 15.5879 77.3173V53.7179M57.5765 78.309V66.7816C57.5765 66.2339 58.0205 65.7899 58.5682 65.7899H71.1212M37.2594 23.7616H59.834" stroke="#2C4E59" stroke-width="0.991667"/>
<path d="M39.8837 35.1715C39.8837 45.5657 31.2379 54.0131 20.5462 54.0131C9.85451 54.0131 1.20872 45.5657 1.20872 35.1715C1.20872 24.7773 9.85451 16.3298 20.5462 16.3298C31.2379 16.3298 39.8837 24.7773 39.8837 35.1715Z" stroke="#2C4E59" stroke-width="0.991667"/>
<path d="M9.63867 35.1704L15.838 40.9629C16.2281 41.3275 16.8369 41.3176 17.215 40.9407L29.472 28.7246" stroke="#2C4E59" stroke-width="0.991667"/>
<path d="M39.3887 35.666H60.2137" stroke="#2C4E59" stroke-width="0.991667"/>
<path d="M35.4219 48.5586H48.3135" stroke="#2C4E59" stroke-width="0.991667"/>
<path d="M51.2871 48.5586H61.2038" stroke="#2C4E59" stroke-width="0.991667"/>
<path d="M42.3633 60.459H61.2049" stroke="#2C4E59" stroke-width="0.991667"/>
</svg>
