<svg width="84" height="83" viewBox="0 0 84 83" fill="none" xmlns="http://www.w3.org/2000/svg">
<path d="M3.27253 68.8232L0.828198 80.6375C0.678987 81.3587 1.38735 81.959 2.07428 81.6934L55.5447 61.0242C55.7236 60.955 55.8779 60.8341 55.9753 60.6688C56.6113 59.5909 57.5574 57.2712 57.2147 54.8727C56.8427 52.2686 56.1297 50.9975 55.8197 50.6875" stroke="#2C4E59" stroke-width="0.991667"/>
<path d="M21.4104 19.9961C20.1703 19.6861 17.3182 19.5311 15.8301 21.3911C13.9701 23.7162 14.9001 33.9466 27.9206 46.5021C40.9412 59.0576 48.8465 60.9177 53.0317 61.8477" stroke="#2C4E59" stroke-width="0.991667"/>
<path d="M9.7832 36.2715C10.2482 39.9916 13.1313 49.199 20.9437 56.2673C30.7091 65.1027 38.1494 66.9627 39.0794 67.4277" stroke="#2C4E59" stroke-width="0.991667"/>
<path d="M6.99163 52.5469C6.06159 57.0421 7.36364 67.7995 20.0122 74.8678" stroke="#2C4E59" stroke-width="0.991667"/>
<path d="M27.918 39.0609C29.468 35.9608 32.6612 28.0865 33.0332 21.3902C33.4052 14.6939 32.5682 8.98969 32.1031 6.97461" stroke="#2C4E59" stroke-width="0.991667"/>
<path d="M33.498 40.4568L49.7737 25.5762" stroke="#2C4E59" stroke-width="0.991667"/>
<path d="M42.7988 41.3866L74.8851 26.041" stroke="#2C4E59" stroke-width="0.991667"/>
<path d="M40.0098 47.8959C44.97 46.1908 58.0525 44.0827 70.701 49.2909" stroke="#2C4E59" stroke-width="0.991667"/>
<path d="M62.7949 59.9883C66.3601 60.7633 74.0484 63.5224 76.2805 68.3586C78.5126 73.1948 77.5205 76.2639 76.7455 77.194C75.9705 77.969 73.8624 79.1471 71.6303 77.659C69.4697 76.2186 69.4586 73.7906 69.7412 72.6525C69.7593 72.5799 69.7879 72.5122 69.8262 72.448C71.1211 70.2784 74.8685 67.1164 80.0006 71.1487C85.2088 75.2409 82.7907 80.2941 80.9307 82.3092" stroke="#2C4E59" stroke-width="0.991667"/>
<path d="M6.98499 1.40608L5.33171 3.886C5.20337 4.0785 5.00789 4.21626 4.78344 4.27238L2.87201 4.75023C2.20128 4.91791 1.9415 5.73283 2.39144 6.25776L3.91414 8.03424C4.0964 8.24688 4.17313 8.53033 4.12303 8.80587L3.60493 11.6555C3.46783 12.4095 4.2504 12.9964 4.93589 12.6537L7.5298 11.3567C7.77837 11.2325 8.0695 11.2258 8.32345 11.3387L10.6452 12.3706C11.2972 12.6604 12.0193 12.1382 11.9483 11.4282L11.6864 8.80888C11.6586 8.53131 11.7569 8.25595 11.9542 8.0587L13.6425 6.37035C14.173 5.83986 13.8894 4.93188 13.1512 4.79768L10.2662 4.27313C9.96357 4.2181 9.70768 4.01695 9.58274 3.73582L8.60871 1.54425C8.31101 0.874441 7.39157 0.796201 6.98499 1.40608Z" stroke="#2C4E59" stroke-width="0.991667"/>
<mask id="path-11-inside-1_2670_683" fill="white">
<rect x="53.0293" y="14.8809" width="6.51026" height="6.51026" rx="0.930038"/>
</mask>
<rect x="53.0293" y="14.8809" width="6.51026" height="6.51026" rx="0.930038" stroke="#2C4E59" stroke-width="1.98333" mask="url(#path-11-inside-1_2670_683)"/>
<path d="M69.3047 20.4609L72.0948 23.7161" stroke="#2C4E59" stroke-width="0.991667"/>
<path d="M74.8848 18.1367V21.8569" stroke="#2C4E59" stroke-width="0.991667"/>
<path d="M78.6055 23.7159L81.3956 20.9258" stroke="#2C4E59" stroke-width="0.991667"/>
<path d="M79.5352 26.5059H83.7203" stroke="#2C4E59" stroke-width="0.991667"/>
<path d="M78.1406 29.7617L80.9307 32.5518" stroke="#2C4E59" stroke-width="0.991667"/>
<path d="M74.8848 31.1562V34.8764" stroke="#2C4E59" stroke-width="0.991667"/>
<circle cx="42.7999" cy="13.9503" r="2.29428" stroke="#2C4E59" stroke-width="0.991667"/>
<circle cx="76.7454" cy="53.4778" r="2.7593" stroke="#2C4E59" stroke-width="0.991667"/>
</svg>
