<svg width="42" height="41" viewBox="0 0 42 41" fill="none" xmlns="http://www.w3.org/2000/svg">
<mask id="path-1-inside-1_13_12945" fill="white">
<path d="M20.9902 0C32.3042 0.000195851 41.4756 9.17236 41.4756 20.4863C41.4754 31.8001 32.304 40.9715 20.9902 40.9717C9.67627 40.9717 0.504102 31.8002 0.503906 20.4863C0.503906 9.17224 9.67615 0 20.9902 0Z"/>
</mask>
<path d="M20.9902 0L20.9903 -1H20.9902V0ZM41.4756 20.4863L42.4756 20.4863V20.4863H41.4756ZM20.9902 40.9717V41.9717H20.9903L20.9902 40.9717ZM0.503906 20.4863H-0.496094V20.4863L0.503906 20.4863ZM20.9902 0L20.9902 1C31.7518 1.00019 40.4756 9.7246 40.4756 20.4863H41.4756H42.4756C42.4756 8.62012 32.8565 -0.999795 20.9903 -1L20.9902 0ZM41.4756 20.4863L40.4756 20.4863C40.4754 31.2478 31.7517 39.9715 20.9902 39.9717L20.9902 40.9717L20.9903 41.9717C32.8563 41.9715 42.4754 32.3524 42.4756 20.4863L41.4756 20.4863ZM20.9902 40.9717V39.9717C10.2285 39.9717 1.50409 31.2479 1.50391 20.4863L0.503906 20.4863L-0.496094 20.4863C-0.495888 32.3526 9.12403 41.9717 20.9902 41.9717V40.9717ZM0.503906 20.4863H1.50391C1.50391 9.72453 10.2284 1 20.9902 1V0V-1C9.12386 -1 -0.496094 8.61996 -0.496094 20.4863H0.503906Z" fill="#C99D66" mask="url(#path-1-inside-1_13_12945)"/>
<path d="M29.5551 12.521L9.62055 19.7912C9.03084 20.0063 9.03193 20.8407 9.62219 21.0542L14.2732 22.7368C14.4605 22.8046 14.6682 22.7857 14.8403 22.6854L23.9562 17.368C24.3022 17.1661 24.6475 17.6304 24.3547 17.9037L18.4676 23.3999C18.1723 23.6755 18.1853 24.1474 18.4951 24.4065L25.4352 30.2089C25.8184 30.5293 26.4047 30.3344 26.5199 29.8483L30.4391 13.3071C30.5624 12.7866 30.0576 12.3377 29.5551 12.521Z" stroke="#C99D66"/>
<path d="M14.6016 22.8438L16.5897 28.0625C16.7481 28.4784 17.2597 28.6281 17.6173 28.3633L20.6484 26.1191" stroke="#C99D66"/>
</svg>
