<svg width="29" height="29" viewBox="0 0 29 29" fill="none" xmlns="http://www.w3.org/2000/svg">
<path fill-rule="evenodd" clip-rule="evenodd" d="M14.5 28.7695C22.3798 28.7695 28.7676 22.3817 28.7676 14.502C28.7676 6.62219 22.3798 0.234375 14.5 0.234375C6.62024 0.234375 0.232422 6.62219 0.232422 14.502C0.232422 17.5232 1.17152 20.3252 2.77374 22.6318L1.58741 27.2289C1.49836 27.5739 1.81235 27.8879 2.15742 27.7989L6.89539 26.5762C9.09673 27.9655 11.7045 28.7695 14.5 28.7695Z" fill="#C99D66"/>
<path d="M13.3622 16.4193C11.8009 15.3655 10.8902 13.8474 10.63 13.2201C10.4348 12.4673 11.8009 12.0909 12.1913 11.3381C12.5816 10.5853 11.6058 9.45617 10.63 7.57423C9.84937 6.06868 8.22306 6.57053 7.50749 7.00965C6.79191 7.57423 5.47786 9.26798 5.94623 11.5263C6.5317 14.3492 9.45906 17.7367 10.63 18.6777C11.8009 19.6186 16.4847 22.8179 19.2169 22.4415C21.9491 22.0652 23.12 20.7478 23.5104 19.6186C23.9007 18.4895 23.3152 18.4895 21.9491 17.7367C20.583 16.9839 19.3702 16.2097 18.8266 16.4193C17.9161 16.7706 17.8552 17.6134 17.0583 18.1833C16.9459 18.2636 16.8004 18.275 16.6723 18.2233C16.0396 17.968 14.7525 17.3578 13.3622 16.4193Z" fill="#2C4E59"/>
</svg>
