<svg width="42" height="42" viewBox="0 0 42 42" fill="none" xmlns="http://www.w3.org/2000/svg">
<mask id="path-1-inside-1_13_12934" fill="white">
<path d="M21.0098 0.316406C32.3237 0.316602 41.4951 9.48877 41.4951 20.8027C41.4949 32.1165 32.3236 41.2879 21.0098 41.2881C16.997 41.2881 13.254 40.1335 10.0938 38.1396L3.28711 39.8965C2.7918 40.024 2.34096 39.5735 2.46875 39.0781L4.17285 32.4736C1.87284 29.162 0.523513 25.1402 0.523438 20.8027C0.523438 9.48865 9.69568 0.316406 21.0098 0.316406Z"/>
</mask>
<path d="M21.0098 0.316406L21.0098 -0.683594H21.0098V0.316406ZM41.4951 20.8027L42.4951 20.8028V20.8027H41.4951ZM21.0098 41.2881V42.2881H21.0098L21.0098 41.2881ZM10.0938 38.1396L10.6274 37.2939L10.2621 37.0634L9.84383 37.1714L10.0938 38.1396ZM3.28711 39.8965L3.53645 40.8649L3.53703 40.8648L3.28711 39.8965ZM2.46875 39.0781L1.50046 38.8283L1.50046 38.8283L2.46875 39.0781ZM4.17285 32.4736L5.14114 32.7235L5.25565 32.2797L4.99419 31.9032L4.17285 32.4736ZM0.523438 20.8027H-0.476562V20.8028L0.523438 20.8027ZM21.0098 0.316406L21.0097 1.31641C31.7714 1.31659 40.4951 10.041 40.4951 20.8027H41.4951H42.4951C42.4951 8.93653 32.876 -0.683388 21.0098 -0.683594L21.0098 0.316406ZM41.4951 20.8027L40.4951 20.8027C40.4949 31.5642 31.7713 40.2879 21.0097 40.2881L21.0098 41.2881L21.0098 42.2881C32.8759 42.2879 42.4949 32.6688 42.4951 20.8028L41.4951 20.8027ZM21.0098 41.2881V40.2881C17.1915 40.2881 13.6327 39.1901 10.6274 37.2939L10.0938 38.1396L9.56015 38.9854C12.8753 41.077 16.8025 42.2881 21.0098 42.2881V41.2881ZM10.0938 38.1396L9.84383 37.1714L3.03719 38.9282L3.28711 39.8965L3.53703 40.8648L10.3437 39.1079L10.0938 38.1396ZM3.28711 39.8965L3.03777 38.9281C3.27884 38.866 3.49968 39.0852 3.43704 39.3279L2.46875 39.0781L1.50046 38.8283C1.18224 40.0617 2.30477 41.182 3.53645 40.8649L3.28711 39.8965ZM2.46875 39.0781L3.43704 39.328L5.14114 32.7235L4.17285 32.4736L3.20456 32.2238L1.50046 38.8283L2.46875 39.0781ZM4.17285 32.4736L4.99419 31.9032C2.80661 28.7534 1.52351 24.9296 1.52344 20.8027L0.523438 20.8027L-0.476562 20.8028C-0.476484 25.3509 0.939082 29.5705 3.35151 33.0441L4.17285 32.4736ZM0.523438 20.8027H1.52344C1.52344 10.0409 10.248 1.31641 21.0098 1.31641V0.316406V-0.683594C9.14339 -0.683594 -0.476562 8.93636 -0.476562 20.8027H0.523438Z" fill="#C99D66" mask="url(#path-1-inside-1_13_12934)"/>
<path d="M19.3756 23.5591C17.1339 22.0459 15.8262 19.8662 15.4526 18.9654C15.1724 17.8846 17.1339 17.3441 17.6943 16.2633C18.2548 15.1824 16.8537 13.5611 15.4526 10.8589C14.3318 8.69721 11.9966 9.41778 10.9692 10.0483C9.94174 10.8589 8.05496 13.2909 8.72748 16.5335C9.56812 20.5867 13.7713 25.4506 15.4526 26.8017C17.1339 28.1528 23.859 32.7465 27.782 32.206C31.705 31.6656 33.3863 29.7741 33.9467 28.1528C34.5072 26.5315 33.6665 26.5315 31.705 25.4506C29.7435 24.3698 28.0021 23.258 27.2216 23.5591C25.9142 24.0634 25.8268 25.2735 24.6826 26.0918C24.5213 26.2072 24.3124 26.2235 24.1284 26.1493C23.22 25.7827 21.3719 24.9066 19.3756 23.5591Z" stroke="#C99D66"/>
</svg>
