<svg width="180" height="38" viewBox="0 0 180 38" fill="none" xmlns="http://www.w3.org/2000/svg">
<path d="M51.3708 5.95898C52.3113 5.95898 53.1557 6.06303 53.9 6.27113C54.6444 6.47923 55.2767 6.77938 55.7889 7.17557C56.3012 7.57176 56.6974 8.05198 56.9735 8.62426C57.2497 9.19653 57.3857 9.84483 57.3857 10.5692C57.3857 11.5737 57.1336 12.4181 56.6334 13.1064C56.1331 13.7947 55.4128 14.323 54.4723 14.6871L57.5738 19.1253H54.4723L51.707 15.1754H51.3668H47.3249V19.1253H44.5996V5.96299H51.3708V5.95898ZM47.3289 7.37166V13.7667H51.3708C52.3593 13.7667 53.1277 13.5066 53.6639 12.9863C54.2042 12.4661 54.4723 11.6617 54.4723 10.5692C54.4723 9.47666 54.2042 8.67228 53.6639 8.15204C53.1237 7.63179 52.3593 7.37166 51.3708 7.37166H47.3289Z" fill="#D99E63"/>
<path d="M63.3132 19.1252H60.5879V5.96289H63.3132V19.1252Z" fill="#D99E63"/>
<path d="M73.2755 17.5245H73.4636L78.1819 5.95898H80.9832L75.6247 19.1213H71.1105L65.752 5.95898H68.5533L73.2755 17.5245Z" fill="#D99E63"/>
<path d="M86.1589 7.37166V11.6977H93.0222V13.1064H86.1589V17.7126H94.9031V19.1213H83.4336V5.95898H94.9031V7.36765H86.1589V7.37166Z" fill="#D99E63"/>
<path d="M104.498 5.95898C105.438 5.95898 106.283 6.06303 107.027 6.27113C107.771 6.47923 108.404 6.77938 108.916 7.17557C109.428 7.57176 109.824 8.05198 110.1 8.62426C110.377 9.19653 110.513 9.84483 110.513 10.5692C110.513 11.5737 110.261 12.4181 109.76 13.1064C109.26 13.7947 108.54 14.323 107.599 14.6871L110.701 19.1253H107.599L104.834 15.1754H104.494H100.452V19.1253H97.7266V5.96299H104.498V5.95898ZM100.456 7.37166V13.7667H104.498C105.486 13.7667 106.255 13.5066 106.791 12.9863C107.331 12.4661 107.599 11.6617 107.599 10.5692C107.599 9.47666 107.331 8.67228 106.791 8.15204C106.251 7.63179 105.486 7.37166 104.498 7.37166H100.456Z" fill="#D99E63"/>
<path d="M120.492 5.95898C121.433 5.95898 122.277 6.06303 123.025 6.27113C123.774 6.47923 124.402 6.77938 124.918 7.17557C125.434 7.57176 125.827 8.05198 126.103 8.62426C126.379 9.19653 126.519 9.84483 126.519 10.5692C126.519 11.2975 126.379 11.9458 126.103 12.5141C125.827 13.0864 125.43 13.5666 124.914 13.9628C124.398 14.359 123.77 14.6591 123.021 14.8672C122.273 15.0753 121.429 15.1794 120.488 15.1794H116.438V19.1293H113.713V5.96698H120.492V5.95898ZM116.438 7.37166V13.7667H120.48C121.469 13.7667 122.237 13.5066 122.785 12.9863C123.329 12.4661 123.602 11.6617 123.602 10.5692C123.602 9.47666 123.329 8.67228 122.785 8.15204C122.241 7.63179 121.473 7.37166 120.48 7.37166H116.438Z" fill="#D99E63"/>
<path d="M136.275 5.95898C137.216 5.95898 138.06 6.06303 138.804 6.27113C139.549 6.47923 140.181 6.77938 140.693 7.17557C141.205 7.57176 141.602 8.05198 141.878 8.62426C142.154 9.19653 142.29 9.84483 142.29 10.5692C142.29 11.5737 142.038 12.4181 141.538 13.1064C141.037 13.7947 140.317 14.323 139.377 14.6871L142.478 19.1253H139.377L136.611 15.1754H136.271H132.229V19.1253H129.504V5.96299H136.275V5.95898ZM132.233 7.37166V13.7667H136.275C137.264 13.7667 138.032 13.5066 138.568 12.9863C139.108 12.4661 139.377 11.6617 139.377 10.5692C139.377 9.47666 139.108 8.67228 138.568 8.15204C138.028 7.63179 137.264 7.37166 136.275 7.37166H132.233Z" fill="#D99E63"/>
<path d="M148.217 19.1252H145.492V5.96289H148.217V19.1252Z" fill="#D99E63"/>
<path d="M157.998 5.95898C159.127 5.95898 160.151 6.09905 161.071 6.38319C161.992 6.66732 162.784 7.08352 163.441 7.63178C164.101 8.18404 164.609 8.86837 164.973 9.69276C165.337 10.5132 165.518 11.4656 165.518 12.5421C165.518 13.6186 165.337 14.5711 164.973 15.3915C164.609 16.2119 164.097 16.9002 163.441 17.4525C162.784 18.0047 161.992 18.4209 161.071 18.7011C160.151 18.9812 159.127 19.1253 157.998 19.1253H151.791V5.96299H157.998V5.95898ZM154.516 7.37166V17.7166H157.994C158.634 17.7166 159.231 17.6205 159.791 17.4245C160.347 17.2284 160.835 16.9242 161.248 16.504C161.66 16.0838 161.992 15.5476 162.236 14.8952C162.48 14.2429 162.604 13.4586 162.604 12.5461C162.604 11.6297 162.48 10.8453 162.236 10.197C161.992 9.5487 161.664 9.00844 161.248 8.58824C160.835 8.16804 160.347 7.85989 159.791 7.6678C159.235 7.4717 158.634 7.37566 157.994 7.37566H154.516V7.37166Z" fill="#D99E63"/>
<path d="M171.255 7.37166V11.6977H178.118V13.1064H171.255V17.7126H179.999V19.1213H168.529V5.95898H179.999V7.36765H171.255V7.37166Z" fill="#D99E63"/>
<path d="M48.3695 32.4472H47.6532C47.5771 32.4472 47.5171 32.4272 47.4651 32.3872C47.417 32.3472 47.369 32.2911 47.325 32.2151L46.4206 30.7864C46.3966 30.7464 46.3725 30.7104 46.3445 30.6864C46.3165 30.6584 46.2885 30.6383 46.2605 30.6223C46.2285 30.6063 46.1965 30.5943 46.1564 30.5903C46.1164 30.5863 46.0764 30.5823 46.0244 30.5823H45.5521V32.4512H44.7598V28.2012H45.5521V29.982H45.9523C46.0324 29.982 46.1004 29.97 46.1604 29.942C46.2205 29.914 46.2725 29.862 46.3245 29.7899L47.257 28.4133C47.297 28.3492 47.341 28.3012 47.393 28.2612C47.4451 28.2212 47.5091 28.2012 47.5851 28.2012H48.2614L47.1049 29.906C47.0569 29.982 47.0008 30.0421 46.9328 30.0901C46.8688 30.1381 46.7967 30.1781 46.7167 30.2061C46.8328 30.2381 46.9328 30.2902 47.0168 30.3622C47.1009 30.4342 47.1769 30.5303 47.249 30.6584L48.3695 32.4472Z" fill="#D99E63"/>
<path d="M53.3198 30.3233C53.3198 30.6355 53.2678 30.9236 53.1637 31.1878C53.0597 31.4519 52.9156 31.684 52.7275 31.8761C52.5394 32.0682 52.3113 32.2202 52.0472 32.3283C51.7831 32.4363 51.4869 32.4924 51.1668 32.4924C50.8466 32.4924 50.5545 32.4363 50.2864 32.3283C50.0182 32.2202 49.7941 32.0682 49.606 31.8761C49.418 31.684 49.2699 31.4519 49.1658 31.1878C49.0618 30.9236 49.0098 30.6355 49.0098 30.3233C49.0098 30.0112 49.0618 29.723 49.1658 29.4589C49.2699 29.1948 49.414 28.9627 49.606 28.7706C49.7941 28.5785 50.0222 28.4264 50.2864 28.3184C50.5505 28.2103 50.8426 28.1543 51.1668 28.1543C51.3829 28.1543 51.583 28.1783 51.7751 28.2303C51.9632 28.2784 52.1392 28.3504 52.2993 28.4424C52.4594 28.5345 52.5995 28.6425 52.7275 28.7746C52.8556 28.9067 52.9596 29.0507 53.0477 29.2108C53.1357 29.3709 53.2038 29.547 53.2478 29.7351C53.2998 29.9191 53.3198 30.1152 53.3198 30.3233ZM52.5114 30.3233C52.5114 30.0912 52.4794 29.8831 52.4194 29.695C52.3554 29.5109 52.2673 29.3509 52.1513 29.2228C52.0352 29.0948 51.8951 28.9947 51.7311 28.9267C51.567 28.8586 51.3789 28.8226 51.1708 28.8226C50.9627 28.8226 50.7786 28.8586 50.6105 28.9267C50.4465 28.9947 50.3024 29.0948 50.1863 29.2228C50.0703 29.3509 49.9782 29.5109 49.9182 29.695C49.8542 29.8791 49.8261 30.0872 49.8261 30.3233C49.8261 30.5595 49.8582 30.7636 49.9182 30.9516C49.9822 31.1357 50.0703 31.2918 50.1863 31.4199C50.3024 31.5479 50.4424 31.648 50.6105 31.716C50.7746 31.784 50.9627 31.82 51.1708 31.82C51.3789 31.82 51.563 31.784 51.7311 31.716C51.8951 31.648 52.0352 31.5479 52.1513 31.4199C52.2673 31.2918 52.3554 31.1357 52.4194 30.9516C52.4834 30.7676 52.5114 30.5595 52.5114 30.3233Z" fill="#D99E63"/>
<path d="M55.9844 28.1973C56.2685 28.1973 56.5126 28.2293 56.7207 28.2973C56.9288 28.3653 57.1009 28.4574 57.233 28.5774C57.369 28.6975 57.4691 28.8416 57.5331 29.0056C57.5971 29.1737 57.6332 29.3538 57.6332 29.5539C57.6332 29.758 57.5971 29.9501 57.5291 30.1182C57.4611 30.2863 57.357 30.4383 57.221 30.5584C57.0849 30.6824 56.9128 30.7785 56.7047 30.8465C56.4966 30.9146 56.2565 30.9506 55.9804 30.9506H55.3881V32.4473H54.5957V28.1973H55.9844ZM55.9844 30.3343C56.1284 30.3343 56.2565 30.3183 56.3645 30.2783C56.4726 30.2422 56.5606 30.1902 56.6327 30.1222C56.7047 30.0542 56.7567 29.9741 56.7927 29.8741C56.8288 29.778 56.8448 29.67 56.8448 29.5499C56.8448 29.4379 56.8288 29.3338 56.7927 29.2418C56.7567 29.1497 56.7047 29.0697 56.6327 29.0056C56.5606 28.9416 56.4726 28.8936 56.3645 28.8576C56.2565 28.8216 56.1284 28.8056 55.9844 28.8056H55.3921V30.3303H55.9844V30.3343Z" fill="#D99E63"/>
<path d="M62.8843 30.3233C62.8843 30.6355 62.8323 30.9236 62.7282 31.1878C62.6242 31.4519 62.4801 31.684 62.292 31.8761C62.1039 32.0682 61.8758 32.2202 61.6117 32.3283C61.3475 32.4363 61.0514 32.4924 60.7312 32.4924C60.4111 32.4924 60.119 32.4363 59.8508 32.3283C59.5827 32.2202 59.3586 32.0682 59.1705 31.8761C58.9824 31.684 58.8343 31.4519 58.7303 31.1878C58.6262 30.9236 58.5742 30.6355 58.5742 30.3233C58.5742 30.0112 58.6262 29.723 58.7303 29.4589C58.8343 29.1948 58.9784 28.9627 59.1705 28.7706C59.3586 28.5785 59.5867 28.4264 59.8508 28.3184C60.115 28.2103 60.4071 28.1543 60.7312 28.1543C60.9473 28.1543 61.1474 28.1783 61.3395 28.2303C61.5276 28.2784 61.7037 28.3504 61.8638 28.4424C62.0239 28.5345 62.1639 28.6425 62.292 28.7746C62.42 28.9067 62.5241 29.0507 62.6121 29.2108C62.7002 29.3709 62.7682 29.547 62.8122 29.7351C62.8603 29.9191 62.8843 30.1152 62.8843 30.3233ZM62.0759 30.3233C62.0759 30.0912 62.0439 29.8831 61.9838 29.695C61.9198 29.5109 61.8318 29.3509 61.7157 29.2228C61.5997 29.0948 61.4596 28.9947 61.2955 28.9267C61.1314 28.8586 60.9433 28.8226 60.7352 28.8226C60.5271 28.8226 60.3431 28.8586 60.175 28.9267C60.0109 28.9947 59.8668 29.0948 59.7508 29.2228C59.6347 29.3509 59.5427 29.5109 59.4826 29.695C59.4186 29.8791 59.3906 30.0872 59.3906 30.3233C59.3906 30.5595 59.4226 30.7636 59.4826 30.9516C59.5467 31.1357 59.6347 31.2918 59.7508 31.4199C59.8668 31.5479 60.0069 31.648 60.175 31.716C60.3391 31.784 60.5271 31.82 60.7352 31.82C60.9433 31.82 61.1274 31.784 61.2955 31.716C61.4596 31.648 61.5997 31.5479 61.7157 31.4199C61.8318 31.2918 61.9198 31.1357 61.9838 30.9516C62.0439 30.7676 62.0759 30.5595 62.0759 30.3233Z" fill="#D99E63"/>
<path d="M67.4918 32.4475H66.6954V28.8058H65.5349C65.5069 29.338 65.4668 29.7982 65.4188 30.1864C65.3708 30.5746 65.3108 30.9068 65.2387 31.1789C65.1707 31.451 65.0907 31.6751 65.0026 31.8432C64.9146 32.0153 64.8145 32.1473 64.7105 32.2434C64.6064 32.3394 64.4904 32.4035 64.3703 32.4355C64.2503 32.4715 64.1222 32.4875 63.9901 32.4875C63.8501 32.4875 63.746 32.4755 63.682 32.4475C63.6179 32.4195 63.5859 32.3835 63.5859 32.3354V31.8432H63.814C63.8661 31.8432 63.9181 31.8392 63.9701 31.8272C64.0221 31.8152 64.0742 31.7912 64.1262 31.7512C64.1782 31.7111 64.2302 31.6591 64.2783 31.5831C64.3263 31.507 64.3743 31.415 64.4223 31.2909C64.4664 31.1669 64.5104 31.0188 64.5504 30.8387C64.5904 30.6586 64.6264 30.4465 64.6584 30.1944C64.6905 29.9423 64.7185 29.6542 64.7425 29.322C64.7665 28.9898 64.7865 28.6137 64.7985 28.1895H67.4998V32.4475H67.4918Z" fill="#D99E63"/>
<path d="M69.8159 28.8296V30.0061H71.3046V30.6144H69.8159V31.815H71.7008V32.4473H69.0195V28.1973H71.7008V28.8256H69.8159V28.8296Z" fill="#D99E63"/>
<path d="M74.4532 28.1973C74.7293 28.1973 74.9694 28.2253 75.1655 28.2773C75.3616 28.3293 75.5257 28.4054 75.6497 28.5054C75.7778 28.6015 75.8698 28.7215 75.9259 28.8616C75.9859 29.0017 76.0139 29.1577 76.0139 29.3298C76.0139 29.4298 75.9979 29.5259 75.9699 29.6179C75.9419 29.71 75.8939 29.794 75.8338 29.8741C75.7738 29.9541 75.6938 30.0261 75.5977 30.0902C75.5017 30.1542 75.3896 30.2102 75.2576 30.2542C75.8418 30.3863 76.134 30.7025 76.134 31.1987C76.134 31.3788 76.098 31.5469 76.0299 31.6989C75.9619 31.851 75.8618 31.9831 75.7298 32.0951C75.5977 32.2072 75.4376 32.2912 75.2456 32.3552C75.0535 32.4193 74.8333 32.4473 74.5852 32.4473H72.9805V28.1973H74.4532ZM73.7809 28.8096V30.0381H74.4091C74.6813 30.0381 74.8854 29.9901 75.0214 29.8901C75.1615 29.79 75.2295 29.638 75.2295 29.4218C75.2295 29.2017 75.1655 29.0417 75.0414 28.9496C74.9174 28.8536 74.7213 28.8096 74.4532 28.8096H73.7809ZM74.5812 31.831C74.7293 31.831 74.8534 31.815 74.9534 31.779C75.0535 31.743 75.1335 31.6949 75.1935 31.6389C75.2536 31.5789 75.2976 31.5108 75.3216 31.4348C75.3456 31.3588 75.3616 31.2747 75.3616 31.1867C75.3616 31.0946 75.3456 31.0106 75.3176 30.9386C75.2896 30.8665 75.2415 30.8025 75.1815 30.7505C75.1175 30.6985 75.0374 30.6584 74.9374 30.6304C74.8373 30.6024 74.7213 30.5904 74.5812 30.5904H73.7848V31.835H74.5812V31.831Z" fill="#D99E63"/>
<path d="M80.3647 31.4478C80.4088 31.4478 80.4448 31.4638 80.4808 31.4958L80.7929 31.832C80.6209 32.0441 80.4088 32.2081 80.1566 32.3242C79.9045 32.4362 79.6044 32.4963 79.2482 32.4963C78.9321 32.4963 78.6479 32.4442 78.3958 32.3362C78.1437 32.2281 77.9276 32.0801 77.7515 31.888C77.5714 31.6959 77.4353 31.4678 77.3433 31.1997C77.2472 30.9315 77.1992 30.6434 77.1992 30.3272C77.1992 30.0071 77.2512 29.715 77.3513 29.4508C77.4513 29.1867 77.5954 28.9586 77.7835 28.7665C77.9676 28.5744 78.1877 28.4263 78.4478 28.3183C78.7039 28.2102 78.9881 28.1582 79.3002 28.1582C79.6084 28.1582 79.8845 28.2102 80.1246 28.3103C80.3647 28.4103 80.5688 28.5464 80.7369 28.7105L80.4728 29.0786C80.4568 29.1026 80.4368 29.1227 80.4128 29.1387C80.3887 29.1547 80.3527 29.1667 80.3127 29.1667C80.2847 29.1667 80.2527 29.1587 80.2207 29.1427C80.1887 29.1267 80.1566 29.1067 80.1166 29.0826C80.0806 29.0586 80.0366 29.0306 79.9886 29.0026C79.9405 28.9746 79.8845 28.9466 79.8165 28.9226C79.7524 28.8986 79.6764 28.8786 79.5924 28.8625C79.5083 28.8465 79.4083 28.8385 79.2962 28.8385C79.1081 28.8385 78.932 28.8705 78.776 28.9386C78.6199 29.0066 78.4838 29.1027 78.3678 29.2307C78.2557 29.3588 78.1677 29.5149 78.1037 29.6989C78.0396 29.883 78.0116 30.0951 78.0116 30.3312C78.0116 30.5714 78.0436 30.7835 78.1117 30.9675C78.1797 31.1556 78.2717 31.3117 78.3878 31.4358C78.5038 31.5638 78.6399 31.6599 78.796 31.7279C78.9521 31.7959 79.1201 31.8279 79.3002 31.8279C79.4083 31.8279 79.5043 31.824 79.5924 31.8119C79.6804 31.7999 79.7604 31.7799 79.8325 31.7559C79.9045 31.7319 79.9765 31.6959 80.0406 31.6559C80.1046 31.6158 80.1726 31.5678 80.2367 31.5078C80.2567 31.4918 80.2767 31.4758 80.2967 31.4638C80.3167 31.4518 80.3407 31.4478 80.3647 31.4478Z" fill="#D99E63"/>
<path d="M85.5277 32.4472H84.8114C84.7353 32.4472 84.6753 32.4272 84.6233 32.3872C84.5752 32.3472 84.5272 32.2911 84.4832 32.2151L83.5788 30.7864C83.5547 30.7464 83.5307 30.7104 83.5027 30.6864C83.4747 30.6584 83.4467 30.6383 83.4187 30.6223C83.3867 30.6063 83.3547 30.5943 83.3146 30.5903C83.2746 30.5863 83.2346 30.5823 83.1826 30.5823H82.7104V32.4512H81.918V28.2012H82.7104V29.982H83.1105C83.1906 29.982 83.2586 29.97 83.3186 29.942C83.3787 29.914 83.4307 29.862 83.4827 29.7899L84.4152 28.4133C84.4552 28.3492 84.4992 28.3012 84.5512 28.2612C84.6033 28.2212 84.6673 28.2012 84.7433 28.2012H85.4196L84.2631 29.906C84.2151 29.982 84.159 30.0421 84.091 30.0901C84.027 30.1381 83.9549 30.1781 83.8749 30.2061C83.991 30.2381 84.091 30.2902 84.1751 30.3622C84.2591 30.4342 84.3351 30.5303 84.4072 30.6584L85.5277 32.4472Z" fill="#D99E63"/>
<path d="M90.1812 28.1973V32.4473H89.3889V29.786C89.3889 29.686 89.3929 29.5819 89.3969 29.4699C89.4009 29.3618 89.4129 29.2418 89.4289 29.1217C89.3889 29.2298 89.3488 29.3338 89.3008 29.4258C89.2528 29.5179 89.2088 29.6019 89.1687 29.67L87.544 32.2032C87.528 32.2312 87.5039 32.2632 87.4799 32.2912C87.4559 32.3192 87.4279 32.3472 87.3999 32.3672C87.3719 32.3913 87.3399 32.4073 87.3038 32.4233C87.2678 32.4393 87.2318 32.4473 87.1958 32.4473H86.6035V28.1973H87.3959V30.8585C87.3959 30.9586 87.3919 31.0626 87.3879 31.1747C87.3839 31.2867 87.3719 31.4028 87.3559 31.5268C87.3959 31.4188 87.4359 31.3148 87.4839 31.2227C87.528 31.1307 87.576 31.0466 87.62 30.9746L89.2408 28.4414C89.2568 28.4134 89.2808 28.3813 89.3048 28.3533C89.3288 28.3253 89.3568 28.2973 89.3848 28.2773C89.4129 28.2533 89.4449 28.2373 89.4809 28.2213C89.5169 28.2053 89.5529 28.1973 89.5929 28.1973H90.1812Z" fill="#D99E63"/>
<path d="M95.3004 28.1974V32.4474H94.508V29.7862C94.508 29.6861 94.512 29.5821 94.516 29.47C94.52 29.362 94.532 29.2419 94.548 29.1219C94.508 29.2299 94.468 29.334 94.4199 29.426C94.3719 29.518 94.3279 29.6021 94.2879 29.6701L92.6631 32.2033C92.6471 32.2313 92.6231 32.2634 92.5991 32.2914C92.5751 32.3194 92.547 32.3474 92.519 32.3674C92.491 32.3914 92.459 32.4074 92.423 32.4234C92.387 32.4394 92.351 32.4474 92.3149 32.4474H91.7227V28.1974H92.515V30.8587C92.515 30.9587 92.511 31.0628 92.507 31.1748C92.503 31.2869 92.491 31.4029 92.475 31.527C92.515 31.4189 92.5551 31.3149 92.6031 31.2229C92.6471 31.1308 92.6951 31.0468 92.7391 30.9747L94.3599 28.4415C94.3759 28.4135 94.3999 28.3815 94.4239 28.3535C94.448 28.3255 94.476 28.2975 94.504 28.2775C94.532 28.2534 94.564 28.2374 94.6 28.2214C94.636 28.2054 94.6721 28.1974 94.7121 28.1974H95.3004ZM93.5435 27.5851C93.6156 27.5851 93.6756 27.5771 93.7276 27.5651C93.7756 27.5531 93.8157 27.5291 93.8437 27.4931C93.8717 27.4571 93.8917 27.413 93.9037 27.353C93.9157 27.293 93.9197 27.221 93.9197 27.1289H94.3479C94.3999 27.1289 94.4359 27.1489 94.46 27.1929C94.484 27.237 94.496 27.285 94.496 27.333C94.496 27.4331 94.472 27.5211 94.428 27.5971C94.3839 27.6732 94.3199 27.7372 94.2359 27.7892C94.1518 27.8412 94.0518 27.8773 93.9317 27.9053C93.8157 27.9333 93.6836 27.9453 93.5395 27.9453C93.3955 27.9453 93.2634 27.9333 93.1473 27.9053C93.0313 27.8773 92.9272 27.8412 92.8432 27.7892C92.7592 27.7372 92.6951 27.6732 92.6511 27.5971C92.6071 27.5211 92.5831 27.4331 92.5831 27.333C92.5831 27.281 92.5951 27.237 92.6191 27.1929C92.6431 27.1489 92.6831 27.1289 92.7311 27.1289H93.1593C93.1593 27.221 93.1633 27.293 93.1754 27.353C93.1874 27.413 93.2074 27.4571 93.2354 27.4931C93.2634 27.5291 93.3034 27.5531 93.3514 27.5651C93.4075 27.5771 93.4715 27.5851 93.5435 27.5851Z" fill="#D99E63"/>
<path d="M102.898 30.3233C102.898 30.6355 102.846 30.9236 102.742 31.1878C102.638 31.4519 102.494 31.684 102.306 31.8761C102.118 32.0682 101.889 32.2202 101.625 32.3283C101.361 32.4363 101.065 32.4924 100.745 32.4924C100.425 32.4924 100.133 32.4363 99.8645 32.3283C99.5964 32.2202 99.3723 32.0682 99.1842 31.8761C98.9961 31.684 98.848 31.4519 98.744 31.1878C98.6399 30.9236 98.5879 30.6355 98.5879 30.3233C98.5879 30.0112 98.6399 29.723 98.744 29.4589C98.848 29.1948 98.9921 28.9627 99.1842 28.7706C99.3723 28.5785 99.6004 28.4264 99.8645 28.3184C100.129 28.2103 100.421 28.1543 100.745 28.1543C100.961 28.1543 101.161 28.1783 101.353 28.2303C101.541 28.2784 101.717 28.3504 101.877 28.4424C102.038 28.5345 102.178 28.6425 102.306 28.7746C102.434 28.9067 102.538 29.0507 102.626 29.2108C102.714 29.3709 102.782 29.547 102.826 29.7351C102.874 29.9191 102.898 30.1152 102.898 30.3233ZM102.09 30.3233C102.09 30.0912 102.058 29.8831 101.998 29.695C101.933 29.5109 101.845 29.3509 101.729 29.2228C101.613 29.0948 101.473 28.9947 101.309 28.9267C101.145 28.8586 100.957 28.8226 100.749 28.8226C100.541 28.8226 100.357 28.8586 100.189 28.9267C100.025 28.9947 99.8805 29.0948 99.7645 29.2228C99.6484 29.3509 99.5563 29.5109 99.4963 29.695C99.4323 29.8791 99.4043 30.0872 99.4043 30.3233C99.4043 30.5595 99.4363 30.7636 99.4963 30.9516C99.5604 31.1357 99.6484 31.2918 99.7645 31.4199C99.8805 31.5479 100.021 31.648 100.189 31.716C100.353 31.784 100.541 31.82 100.749 31.82C100.957 31.82 101.141 31.784 101.309 31.716C101.473 31.648 101.613 31.5479 101.729 31.4199C101.845 31.2918 101.933 31.1357 101.998 30.9516C102.058 30.7676 102.09 30.5595 102.09 30.3233Z" fill="#D99E63"/>
<path d="M107.01 28.8495H105.729V32.4472H104.937V28.8495H103.656V28.2012H107.01V28.8495Z" fill="#D99E63"/>
<path d="M111.939 31.8392V33.2319C111.939 33.2999 111.915 33.3559 111.871 33.3959C111.823 33.436 111.763 33.456 111.691 33.456H111.215V32.4435H108.093V33.2279C108.093 33.2959 108.069 33.3519 108.025 33.3919C107.981 33.432 107.917 33.452 107.845 33.452H107.369V31.8312H107.833C107.889 31.8032 107.941 31.7552 107.997 31.6911C108.049 31.6271 108.105 31.5351 108.154 31.419C108.206 31.3029 108.254 31.1509 108.298 30.9708C108.342 30.7907 108.386 30.5706 108.422 30.3105C108.458 30.0503 108.49 29.7462 108.518 29.398C108.546 29.0499 108.566 28.6457 108.578 28.1895H111.279V31.8312H111.939V31.8392ZM110.487 31.8392V28.8058H109.326C109.302 29.2219 109.27 29.5941 109.23 29.9183C109.19 30.2424 109.142 30.5266 109.09 30.7707C109.038 31.0148 108.978 31.2269 108.914 31.399C108.85 31.5711 108.778 31.7191 108.706 31.8392H110.487Z" fill="#D99E63"/>
<path d="M114.621 29.9541C114.898 29.9541 115.134 29.9861 115.33 30.0461C115.526 30.1062 115.686 30.1902 115.81 30.2943C115.934 30.3983 116.026 30.5224 116.086 30.6664C116.146 30.8065 116.174 30.9626 116.174 31.1227C116.174 31.3228 116.138 31.5028 116.07 31.6669C116.002 31.831 115.898 31.9711 115.766 32.0871C115.634 32.2032 115.47 32.2952 115.278 32.3552C115.086 32.4193 114.866 32.4473 114.617 32.4473H113.137V28.1973H113.929V29.9541H114.621ZM114.617 31.831C114.765 31.831 114.886 31.815 114.986 31.783C115.086 31.751 115.166 31.7069 115.226 31.6509C115.286 31.5949 115.33 31.5269 115.354 31.4508C115.378 31.3748 115.394 31.2907 115.394 31.2027C115.394 31.1066 115.382 31.0186 115.354 30.9426C115.326 30.8665 115.286 30.7985 115.226 30.7425C115.166 30.6904 115.086 30.6464 114.99 30.6184C114.894 30.5904 114.769 30.5744 114.621 30.5744H113.929V31.831H114.617ZM117.591 32.4473H116.798V28.1973H117.591V32.4473Z" fill="#D99E63"/>
<path d="M122.578 32.4471H121.79C121.734 32.4471 121.69 32.4351 121.658 32.4071C121.626 32.3791 121.598 32.3471 121.582 32.315L120.597 30.6863C120.581 30.7343 120.561 30.7783 120.541 30.8143L119.597 32.319C119.573 32.3511 119.545 32.3831 119.517 32.4111C119.485 32.4391 119.449 32.4551 119.397 32.4551H118.66L120.069 30.2701L118.716 28.2091H119.505C119.561 28.2091 119.601 28.2171 119.625 28.2331C119.649 28.2491 119.673 28.2731 119.693 28.3051L120.661 29.8619C120.681 29.8139 120.705 29.7658 120.733 29.7138L121.622 28.3171C121.642 28.2811 121.666 28.2531 121.694 28.2331C121.718 28.2171 121.75 28.2051 121.79 28.2051H122.546L121.181 30.234L122.578 32.4471Z" fill="#D99E63"/>
<path d="M129.254 28.1973V32.4473H128.461V30.5904H126.464V32.4473H125.672V28.1973H126.464V30.0261H128.461V28.1973H129.254Z" fill="#D99E63"/>
<path d="M134.419 32.4473H133.807C133.739 32.4473 133.683 32.4313 133.639 32.3953C133.595 32.3592 133.563 32.3192 133.543 32.2672L133.227 31.3988H131.466L131.15 32.2672C131.134 32.3112 131.102 32.3552 131.058 32.3913C131.014 32.4273 130.958 32.4473 130.886 32.4473H130.273L131.942 28.1973H132.751L134.419 32.4473ZM133.023 30.8425L132.507 29.4298C132.482 29.3658 132.454 29.2938 132.426 29.2057C132.398 29.1177 132.37 29.0257 132.342 28.9256C132.318 29.0257 132.29 29.1177 132.262 29.2057C132.234 29.2938 132.21 29.3698 132.182 29.4339L131.666 30.8425H133.023Z" fill="#D99E63"/>
<path d="M138.916 28.1973C139.192 28.1973 139.432 28.2253 139.628 28.2773C139.825 28.3293 139.989 28.4054 140.113 28.5054C140.241 28.6015 140.333 28.7215 140.389 28.8616C140.449 29.0017 140.477 29.1577 140.477 29.3298C140.477 29.4298 140.461 29.5259 140.433 29.6179C140.405 29.71 140.357 29.794 140.297 29.8741C140.237 29.9541 140.157 30.0261 140.061 30.0902C139.965 30.1542 139.853 30.2102 139.72 30.2542C140.305 30.3863 140.597 30.7025 140.597 31.1987C140.597 31.3788 140.561 31.5469 140.493 31.6989C140.425 31.851 140.325 31.9831 140.193 32.0951C140.061 32.2072 139.901 32.2912 139.708 32.3552C139.516 32.4193 139.296 32.4473 139.048 32.4473H137.443V28.1973H138.916ZM138.24 28.8096V30.0381H138.868C139.14 30.0381 139.344 29.9901 139.48 29.8901C139.62 29.79 139.688 29.638 139.688 29.4218C139.688 29.2017 139.624 29.0417 139.5 28.9496C139.376 28.8536 139.18 28.8096 138.912 28.8096H138.24ZM139.04 31.831C139.188 31.831 139.312 31.815 139.412 31.779C139.512 31.743 139.592 31.6949 139.652 31.6389C139.712 31.5789 139.756 31.5108 139.78 31.4348C139.804 31.3588 139.82 31.2747 139.82 31.1867C139.82 31.0946 139.804 31.0106 139.776 30.9386C139.748 30.8665 139.7 30.8025 139.64 30.7505C139.576 30.6985 139.496 30.6584 139.396 30.6304C139.296 30.6024 139.18 30.5904 139.04 30.5904H138.244V31.835H139.04V31.831Z" fill="#D99E63"/>
<path d="M145.96 30.3233C145.96 30.6355 145.908 30.9236 145.804 31.1878C145.7 31.4519 145.556 31.684 145.368 31.8761C145.18 32.0682 144.952 32.2202 144.688 32.3283C144.424 32.4363 144.128 32.4924 143.807 32.4924C143.487 32.4924 143.195 32.4363 142.927 32.3283C142.659 32.2202 142.435 32.0682 142.247 31.8761C142.059 31.684 141.911 31.4519 141.806 31.1878C141.702 30.9236 141.65 30.6355 141.65 30.3233C141.65 30.0112 141.702 29.723 141.806 29.4589C141.911 29.1948 142.055 28.9627 142.247 28.7706C142.435 28.5785 142.663 28.4264 142.927 28.3184C143.191 28.2103 143.483 28.1543 143.807 28.1543C144.024 28.1543 144.224 28.1783 144.416 28.2303C144.604 28.2784 144.78 28.3504 144.94 28.4424C145.1 28.5345 145.24 28.6425 145.368 28.7746C145.496 28.9067 145.6 29.0507 145.688 29.2108C145.776 29.3709 145.844 29.547 145.888 29.7351C145.94 29.9191 145.96 30.1152 145.96 30.3233ZM145.152 30.3233C145.152 30.0912 145.12 29.8831 145.06 29.695C144.996 29.5109 144.908 29.3509 144.792 29.2228C144.676 29.0948 144.536 28.9947 144.372 28.9267C144.208 28.8586 144.02 28.8226 143.811 28.8226C143.603 28.8226 143.419 28.8586 143.251 28.9267C143.087 28.9947 142.943 29.0948 142.827 29.2228C142.711 29.3509 142.619 29.5109 142.559 29.695C142.495 29.8791 142.467 30.0872 142.467 30.3233C142.467 30.5595 142.499 30.7636 142.559 30.9516C142.623 31.1357 142.711 31.2918 142.827 31.4199C142.943 31.5479 143.083 31.648 143.251 31.716C143.415 31.784 143.603 31.82 143.811 31.82C144.02 31.82 144.204 31.784 144.372 31.716C144.536 31.648 144.676 31.5479 144.792 31.4199C144.908 31.2918 144.996 31.1357 145.06 30.9516C145.124 30.7676 145.152 30.5595 145.152 30.3233Z" fill="#D99E63"/>
<path d="M151.234 31.8392V33.2319C151.234 33.2999 151.21 33.3559 151.166 33.3959C151.118 33.436 151.058 33.456 150.986 33.456H150.51V32.4435H147.388V33.2279C147.388 33.2959 147.364 33.3519 147.32 33.3919C147.276 33.432 147.212 33.452 147.14 33.452H146.664V31.8312H147.128C147.184 31.8032 147.236 31.7552 147.292 31.6911C147.344 31.6271 147.4 31.5351 147.448 31.419C147.5 31.3029 147.548 31.1509 147.593 30.9708C147.637 30.7907 147.681 30.5706 147.717 30.3105C147.753 30.0503 147.785 29.7462 147.813 29.398C147.841 29.0499 147.861 28.6457 147.873 28.1895H150.574V31.8312H151.234V31.8392ZM149.782 31.8392V28.8058H148.621C148.597 29.2219 148.565 29.5941 148.525 29.9183C148.485 30.2424 148.437 30.5266 148.385 30.7707C148.333 31.0148 148.273 31.2269 148.209 31.399C148.145 31.5711 148.073 31.7191 148.001 31.8392H149.782Z" fill="#D99E63"/>
<path d="M153.224 28.8296V30.0061H154.713V30.6144H153.224V31.815H155.109V32.4473H152.428V28.1973H155.109V28.8256H153.224V28.8296Z" fill="#D99E63"/>
<path d="M16.1677 37.2618L16.0196 37.2258C8.22793 35.3809 0.52025 28.3775 0.196096 28.0814L0 27.9013V3.43364L0.288138 3.25755C0.504241 3.12549 5.70673 0 15.4474 0C25.9604 0 31.7632 3.10948 32.0033 3.24154L32.3194 3.41362V27.8653L32.1634 28.0374C31.9232 28.3055 26.1885 34.6245 16.3118 37.2218L16.1677 37.2618ZM1.21658 27.3651C2.46118 28.4616 9.38448 34.3484 16.1557 36.0132C24.7158 33.7201 30.1424 28.4016 31.1108 27.3971V4.14998C29.7782 3.52168 24.2876 1.21258 15.4514 1.21258C7.3395 1.21258 2.42116 3.49767 1.21658 4.12997V27.3651Z" fill="#D99E63"/>
<path d="M15.8418 8.1715C16.262 8.26354 16.7102 8.30756 17.1704 8.30756C17.8828 8.30756 18.6151 8.19951 19.2915 7.99541V6.63477C18.431 6.95892 17.2185 7.15101 16.1179 6.9109C15.0094 6.67078 14.133 6.64277 13.3086 6.82286V8.15149C13.8368 7.98741 14.5692 7.89136 15.8418 8.1715Z" fill="#D99E63"/>
<path d="M8.75074 21.8987H11.332C11.484 21.8987 11.6081 21.7746 11.6081 21.6226V19.5496C11.6081 19.3975 11.484 19.2734 11.332 19.2734H8.75074C8.59866 19.2734 8.47461 19.3975 8.47461 19.5496V21.6226C8.47461 21.7746 8.59866 21.8987 8.75074 21.8987Z" fill="#D99E63"/>
<path d="M12.7238 22.0587C12.996 22.0547 13.6483 21.9987 13.9004 21.8106C13.9324 21.7866 13.9524 21.7465 13.9764 21.7105C14.2486 21.2303 14.2526 19.8576 13.9564 19.4534C13.9404 19.4334 13.9284 19.4094 13.9084 19.3934C13.6723 19.2053 13.008 19.1213 12.7118 19.1133C12.6838 19.1133 12.6678 19.1413 12.6798 19.1693C12.9119 19.7256 12.8479 21.6225 12.6958 21.9987C12.6878 22.0267 12.6958 22.0587 12.7238 22.0587Z" fill="#D99E63"/>
<path d="M25.5547 27.8119C25.4946 27.6318 25.3866 27.3237 25.3466 27.2076C24.5022 24.7144 23.6017 22.7775 22.5732 21.2928C23.5457 20.2043 23.8178 18.9877 23.8939 18.0632C23.9579 17.2268 23.9219 16.3024 23.8418 15.9302C23.4817 13.7292 22.2971 11.9403 20.4282 11.0879C19.6398 10.7117 18.7114 10.5196 17.6469 10.5196H11.612V10.5156H8.47852V17.9792C8.47852 17.9792 12.3284 17.9872 12.6645 18.0032C14.4414 18.0792 15.9421 18.2513 17.2747 18.7035C17.911 18.9196 19.6879 19.5119 20.3882 20.6084C19.6799 21.6129 18.5193 22.0852 17.3427 22.4573C15.9381 22.9015 14.5934 23.0136 12.5525 23.0816C12.3163 23.0896 8.50653 23.0936 8.50653 23.0936V27.8119H11.64V24.2182C15.3978 24.1261 18.8515 23.838 21.3847 22.3013C21.4607 22.2532 21.5327 22.2012 21.6088 22.1492C22.5132 23.5418 23.3016 25.3787 24.11 27.8119H25.5547ZM19.7079 18.4514C17.4828 17.0508 14.9656 16.8907 11.652 16.8146C11.64 16.8146 11.62 16.8146 11.608 16.8146V11.7882H16.5984C17.9991 11.7722 19.2316 12.6086 20.0961 13.8052C20.7484 14.6976 21.0805 15.8182 21.1606 16.9707C21.1606 16.9787 21.1606 16.9867 21.1606 16.9947C21.1926 17.9232 21.0845 18.6915 20.8764 19.3358C20.5043 19.0037 20.1161 18.7075 19.7079 18.4514Z" fill="#D99E63"/>
</svg>
