<svg width="19" height="17" viewBox="0 0 19 17" fill="none" xmlns="http://www.w3.org/2000/svg">
<path d="M8.02953 10.5324C6.36128 9.40625 5.38813 7.78411 5.11009 7.11381C4.90155 6.30945 6.36128 5.90725 6.77834 5.10289C7.1954 4.29852 6.15275 3.09198 5.11009 1.08107C4.27596 -0.527661 2.5382 0.00858273 1.77358 0.477796C1.00897 1.08107 -0.395143 2.89089 0.105332 5.30399C0.730927 8.32036 3.8589 11.94 5.11009 12.9455C6.36127 13.9509 11.366 17.3695 14.2855 16.9673C17.2049 16.5651 18.4561 15.1575 18.8732 13.9509C19.2902 12.7444 18.6646 12.7444 17.2049 11.94C15.7452 11.1356 14.4493 10.3083 13.8684 10.5324C12.97 10.8789 12.8457 11.6734 12.1614 12.2726C11.9393 12.467 11.6227 12.4867 11.3515 12.3702C10.6236 12.0579 9.37155 11.4383 8.02953 10.5324Z" fill="#C99D66"/>
</svg>
